<svg width="512" height="60" viewBox="0 0 512 60" fill="none" xmlns="http://www.w3.org/2000/svg">
<rect width="512" height="60" rx="8" fill="#D0D0D2" fill-opacity="0.25"/>
<path d="M37.6619 37.126C36.8339 37.126 36.0899 36.982 35.4299 36.694C34.7819 36.394 34.2719 35.986 33.8999 35.47C33.5279 34.942 33.3359 34.336 33.3239 33.652H35.0699C35.1299 34.24 35.3699 34.738 35.7899 35.146C36.2219 35.542 36.8459 35.74 37.6619 35.74C38.4419 35.74 39.0539 35.548 39.4979 35.164C39.9539 34.768 40.1819 34.264 40.1819 33.652C40.1819 33.172 40.0499 32.782 39.7859 32.482C39.5219 32.182 39.1919 31.954 38.7959 31.798C38.3999 31.642 37.8659 31.474 37.1939 31.294C36.3659 31.078 35.6999 30.862 35.1959 30.646C34.7039 30.43 34.2779 30.094 33.9179 29.638C33.5699 29.17 33.3959 28.546 33.3959 27.766C33.3959 27.082 33.5699 26.476 33.9179 25.948C34.2659 25.42 34.7519 25.012 35.3759 24.724C36.0119 24.436 36.7379 24.292 37.5539 24.292C38.7299 24.292 39.6899 24.586 40.4339 25.174C41.1899 25.762 41.6159 26.542 41.7119 27.514H39.9119C39.8519 27.034 39.5999 26.614 39.1559 26.254C38.7119 25.882 38.1239 25.696 37.3919 25.696C36.7079 25.696 36.1499 25.876 35.7179 26.236C35.2859 26.584 35.0699 27.076 35.0699 27.712C35.0699 28.168 35.1959 28.54 35.4479 28.828C35.7119 29.116 36.0299 29.338 36.4019 29.494C36.7859 29.638 37.3199 29.806 38.0039 29.998C38.8319 30.226 39.4979 30.454 40.0019 30.682C40.5059 30.898 40.9379 31.24 41.2979 31.708C41.6579 32.164 41.8379 32.788 41.8379 33.58C41.8379 34.192 41.6759 34.768 41.3519 35.308C41.0279 35.848 40.5479 36.286 39.9119 36.622C39.2759 36.958 38.5259 37.126 37.6619 37.126ZM53.2483 31.69C53.2483 32.002 53.2303 32.332 53.1943 32.68H45.3103C45.3703 33.652 45.7003 34.414 46.3003 34.966C46.9123 35.506 47.6503 35.776 48.5143 35.776C49.2223 35.776 49.8103 35.614 50.2783 35.29C50.7583 34.954 51.0943 34.51 51.2863 33.958H53.0503C52.7863 34.906 52.2583 35.68 51.4663 36.28C50.6743 36.868 49.6903 37.162 48.5143 37.162C47.5783 37.162 46.7383 36.952 45.9943 36.532C45.2623 36.112 44.6863 35.518 44.2663 34.75C43.8463 33.97 43.6363 33.07 43.6363 32.05C43.6363 31.03 43.8403 30.136 44.2483 29.368C44.6563 28.6 45.2263 28.012 45.9583 27.604C46.7023 27.184 47.5543 26.974 48.5143 26.974C49.4503 26.974 50.2783 27.178 50.9983 27.586C51.7183 27.994 52.2703 28.558 52.6543 29.278C53.0503 29.986 53.2483 30.79 53.2483 31.69ZM51.5563 31.348C51.5563 30.724 51.4183 30.19 51.1423 29.746C50.8663 29.29 50.4883 28.948 50.0083 28.72C49.5403 28.48 49.0183 28.36 48.4423 28.36C47.6143 28.36 46.9063 28.624 46.3183 29.152C45.7423 29.68 45.4123 30.412 45.3283 31.348H51.5563ZM54.7984 32.032C54.7984 31.024 55.0024 30.142 55.4104 29.386C55.8184 28.618 56.3764 28.024 57.0844 27.604C57.8044 27.184 58.6024 26.974 59.4784 26.974C60.3424 26.974 61.0924 27.16 61.7284 27.532C62.3644 27.904 62.8384 28.372 63.1504 28.936V27.136H64.8064V37H63.1504V35.164C62.8264 35.74 62.3404 36.22 61.6924 36.604C61.0564 36.976 60.3124 37.162 59.4604 37.162C58.5844 37.162 57.7924 36.946 57.0844 36.514C56.3764 36.082 55.8184 35.476 55.4104 34.696C55.0024 33.916 54.7984 33.028 54.7984 32.032ZM63.1504 32.05C63.1504 31.306 63.0004 30.658 62.7004 30.106C62.4004 29.554 61.9924 29.134 61.4764 28.846C60.9724 28.546 60.4144 28.396 59.8024 28.396C59.1904 28.396 58.6324 28.54 58.1284 28.828C57.6244 29.116 57.2224 29.536 56.9224 30.088C56.6224 30.64 56.4724 31.288 56.4724 32.032C56.4724 32.788 56.6224 33.448 56.9224 34.012C57.2224 34.564 57.6244 34.99 58.1284 35.29C58.6324 35.578 59.1904 35.722 59.8024 35.722C60.4144 35.722 60.9724 35.578 61.4764 35.29C61.9924 34.99 62.4004 34.564 62.7004 34.012C63.0004 33.448 63.1504 32.794 63.1504 32.05ZM69.2125 28.738C69.5005 28.174 69.9085 27.736 70.4365 27.424C70.9765 27.112 71.6305 26.956 72.3985 26.956V28.648H71.9665C70.1305 28.648 69.2125 29.644 69.2125 31.636V37H67.5745V27.136H69.2125V28.738ZM73.6773 32.05C73.6773 31.03 73.8813 30.142 74.2893 29.386C74.6973 28.618 75.2613 28.024 75.9813 27.604C76.7133 27.184 77.5473 26.974 78.4833 26.974C79.6953 26.974 80.6913 27.268 81.4713 27.856C82.2633 28.444 82.7853 29.26 83.0373 30.304H81.2733C81.1053 29.704 80.7753 29.23 80.2833 28.882C79.8033 28.534 79.2033 28.36 78.4833 28.36C77.5473 28.36 76.7913 28.684 76.2153 29.332C75.6393 29.968 75.3513 30.874 75.3513 32.05C75.3513 33.238 75.6393 34.156 76.2153 34.804C76.7913 35.452 77.5473 35.776 78.4833 35.776C79.2033 35.776 79.8033 35.608 80.2833 35.272C80.7633 34.936 81.0933 34.456 81.2733 33.832H83.0373C82.7733 34.84 82.2453 35.65 81.4533 36.262C80.6613 36.862 79.6713 37.162 78.4833 37.162C77.5473 37.162 76.7133 36.952 75.9813 36.532C75.2613 36.112 74.6973 35.518 74.2893 34.75C73.8813 33.982 73.6773 33.082 73.6773 32.05ZM90.1189 26.956C90.8629 26.956 91.5349 27.118 92.1349 27.442C92.7349 27.754 93.2029 28.228 93.5389 28.864C93.8869 29.5 94.0609 30.274 94.0609 31.186V37H92.4409V31.42C92.4409 30.436 92.1949 29.686 91.7029 29.17C91.2109 28.642 90.5389 28.378 89.6869 28.378C88.8229 28.378 88.1329 28.648 87.6169 29.188C87.1129 29.728 86.8609 30.514 86.8609 31.546V37H85.2229V23.68H86.8609V28.54C87.1849 28.036 87.6289 27.646 88.1929 27.37C88.7689 27.094 89.4109 26.956 90.1189 26.956ZM106.431 26.956C107.175 26.956 107.847 27.118 108.447 27.442C109.047 27.754 109.515 28.228 109.851 28.864C110.199 29.5 110.373 30.274 110.373 31.186V37H108.753V31.42C108.753 30.436 108.507 29.686 108.015 29.17C107.523 28.642 106.851 28.378 105.999 28.378C105.135 28.378 104.445 28.648 103.929 29.188C103.425 29.728 103.173 30.514 103.173 31.546V37H101.535V23.68H103.173V28.54C103.497 28.036 103.941 27.646 104.505 27.37C105.081 27.094 105.723 26.956 106.431 26.956ZM122.049 31.69C122.049 32.002 122.031 32.332 121.995 32.68H114.111C114.171 33.652 114.501 34.414 115.101 34.966C115.713 35.506 116.451 35.776 117.315 35.776C118.023 35.776 118.611 35.614 119.079 35.29C119.559 34.954 119.895 34.51 120.087 33.958H121.851C121.587 34.906 121.059 35.68 120.267 36.28C119.475 36.868 118.491 37.162 117.315 37.162C116.379 37.162 115.539 36.952 114.795 36.532C114.063 36.112 113.487 35.518 113.067 34.75C112.647 33.97 112.437 33.07 112.437 32.05C112.437 31.03 112.641 30.136 113.049 29.368C113.457 28.6 114.027 28.012 114.759 27.604C115.503 27.184 116.355 26.974 117.315 26.974C118.251 26.974 119.079 27.178 119.799 27.586C120.519 27.994 121.071 28.558 121.455 29.278C121.851 29.986 122.049 30.79 122.049 31.69ZM120.357 31.348C120.357 30.724 120.219 30.19 119.943 29.746C119.667 29.29 119.289 28.948 118.809 28.72C118.341 28.48 117.819 28.36 117.243 28.36C116.415 28.36 115.707 28.624 115.119 29.152C114.543 29.68 114.213 30.412 114.129 31.348H120.357ZM125.849 28.738C126.137 28.174 126.545 27.736 127.073 27.424C127.613 27.112 128.267 26.956 129.035 26.956V28.648H128.603C126.767 28.648 125.849 29.644 125.849 31.636V37H124.211V27.136H125.849V28.738ZM139.926 31.69C139.926 32.002 139.908 32.332 139.872 32.68H131.988C132.048 33.652 132.378 34.414 132.978 34.966C133.59 35.506 134.328 35.776 135.192 35.776C135.9 35.776 136.488 35.614 136.956 35.29C137.436 34.954 137.772 34.51 137.964 33.958H139.728C139.464 34.906 138.936 35.68 138.144 36.28C137.352 36.868 136.368 37.162 135.192 37.162C134.256 37.162 133.416 36.952 132.672 36.532C131.94 36.112 131.364 35.518 130.944 34.75C130.524 33.97 130.314 33.07 130.314 32.05C130.314 31.03 130.518 30.136 130.926 29.368C131.334 28.6 131.904 28.012 132.636 27.604C133.38 27.184 134.232 26.974 135.192 26.974C136.128 26.974 136.956 27.178 137.676 27.586C138.396 27.994 138.948 28.558 139.332 29.278C139.728 29.986 139.926 30.79 139.926 31.69ZM138.234 31.348C138.234 30.724 138.096 30.19 137.82 29.746C137.544 29.29 137.166 28.948 136.686 28.72C136.218 28.48 135.696 28.36 135.12 28.36C134.292 28.36 133.584 28.624 132.996 29.152C132.42 29.68 132.09 30.412 132.006 31.348H138.234Z" fill="#949494"/>
<path d="M452 0H504C508.418 0 512 3.58172 512 8V52C512 56.4183 508.418 60 504 60H452V0Z" fill="#F38160"/>
<g clip-path="url(#clip0_1124_38)">
<path d="M490.71 37.29L487.31 33.9C488.407 32.5025 489.002 30.7767 489 29C489 27.4177 488.531 25.871 487.652 24.5554C486.773 23.2398 485.523 22.2145 484.061 21.609C482.6 21.0035 480.991 20.845 479.439 21.1537C477.887 21.4624 476.462 22.2243 475.343 23.3431C474.224 24.462 473.462 25.8874 473.154 27.4393C472.845 28.9911 473.003 30.5997 473.609 32.0615C474.214 33.5233 475.24 34.7727 476.555 35.6518C477.871 36.5308 479.418 37 481 37C482.777 37.0022 484.502 36.407 485.9 35.31L489.29 38.71C489.383 38.8037 489.494 38.8781 489.615 38.9289C489.737 38.9797 489.868 39.0058 490 39.0058C490.132 39.0058 490.263 38.9797 490.385 38.9289C490.506 38.8781 490.617 38.8037 490.71 38.71C490.804 38.617 490.878 38.5064 490.929 38.3846C490.98 38.2627 491.006 38.132 491.006 38C491.006 37.868 490.98 37.7373 490.929 37.6154C490.878 37.4936 490.804 37.383 490.71 37.29ZM475 29C475 27.8133 475.352 26.6533 476.011 25.6666C476.67 24.6799 477.608 23.9108 478.704 23.4567C479.8 23.0026 481.007 22.8838 482.171 23.1153C483.334 23.3468 484.404 23.9182 485.243 24.7574C486.082 25.5965 486.653 26.6656 486.885 27.8295C487.116 28.9933 486.997 30.1997 486.543 31.2961C486.089 32.3925 485.32 33.3295 484.333 33.9888C483.347 34.6481 482.187 35 481 35C479.409 35 477.883 34.3679 476.757 33.2426C475.632 32.1174 475 30.5913 475 29Z" fill="#FAFAFA"/>
</g>
<defs>
<clipPath id="clip0_1124_38">
<rect width="24" height="24" fill="white" transform="translate(470 18)"/>
</clipPath>
</defs>
</svg>
